<svg width="416" height="544" viewBox="0 0 416 544" fill="none" xmlns="http://www.w3.org/2000/svg">
<path d="M200 219C200 274.228 155.228 319 100 319C44.7715 319 0 274.228 0 219C0 163.772 44.7715 119 100 119C155.228 119 200 163.772 200 219ZM49.3663 219C49.3663 246.964 72.0358 269.634 100 269.634C127.964 269.634 150.634 246.964 150.634 219C150.634 191.036 127.964 168.366 100 168.366C72.0358 168.366 49.3663 191.036 49.3663 219Z" fill="#F9DA82"/>
<path d="M195 0H157C154.239 0 152 2.23858 152 5V215C152 217.761 154.239 220 157 220H195C197.761 220 200 217.761 200 215V5C200 2.23858 197.761 0 195 0Z" fill="#F9DA82"/>
<path d="M216 219C216 163.772 260.772 119 316 119C371.228 119 416 163.772 416 219C416 274.228 371.228 319 316 319C260.772 319 216 274.228 216 219ZM366.634 219C366.634 191.036 343.964 168.366 316 168.366C288.036 168.366 265.366 191.036 265.366 219C265.366 246.964 288.036 269.634 316 269.634C343.964 269.634 366.634 246.964 366.634 219Z" fill="#F9DA82"/>
<path d="M221 438H259C261.761 438 264 435.761 264 433V223C264 220.239 261.761 218 259 218H221C218.239 218 216 220.239 216 223L216 433C216 435.761 218.239 438 221 438Z" fill="#F9DA82"/>
<path d="M213.077 480.885C218.304 482.208 223.17 484.838 226.679 488.932C231.851 494.967 235.146 500.474 236.388 505.199C238.033 511.456 236.036 516.176 230.551 518.996C225.066 521.815 216.239 522.658 204.752 521.46C193.264 520.262 179.422 517.054 164.293 512.085C149.165 507.115 133.152 500.517 117.492 492.798C101.831 485.079 86.9394 476.445 73.9655 467.563C60.9915 458.681 50.2816 449.787 42.6613 441.567C34.8703 433.163 42.8726 425.085 53.5721 429.19L140.422 462.506L213.077 480.885Z" fill="#F9DA82"/>
</svg>
